<?xml version="1.0" encoding="UTF-8" standalone="no"?>
<svg width="27px" height="31px" viewBox="0 0 27 31" version="1.1" xmlns="http://www.w3.org/2000/svg" xmlns:xlink="http://www.w3.org/1999/xlink" xmlns:sketch="http://www.bohemiancoding.com/sketch/ns">
    <!-- Generator: Sketch 3.2.2 (9983) - http://www.bohemiancoding.com/sketch -->
    <title>Imported Layers</title>
    <desc>Created with Sketch.</desc>
    <defs></defs>
    <g id="Page-1" stroke="none" stroke-width="1" fill="none" fill-rule="evenodd" sketch:type="MSPage">
        <g id="Apps" sketch:type="MSArtboardGroup" transform="translate(-782.000000, -574.000000)" fill="#FFFFFF">
            <g id="Imported-Layers" sketch:type="MSLayerGroup" transform="translate(782.000000, 574.000000)">
                <path d="M19.1326696,0.450113861 C19.2263478,0.31659901 19.2030261,0.141341584 19.0805478,0.058470297 C18.9582261,-0.0239405941 18.7827652,0.0168044554 18.6897913,0.150472772 L17.0501478,2.48383663 C15.9696,2.06648762 14.7697043,1.83391089 13.5050087,1.83391089 C12.240313,1.83391089 11.0401043,2.06625743 9.95963478,2.48383663 L8.32022609,0.15039604 C8.22623478,0.0168811881 8.05108696,-0.0240173267 7.92868696,0.0583935644 C7.80628696,0.141034653 7.78304348,0.316368812 7.87672174,0.450037129 L9.45493043,2.69615594 C6.94565217,3.8407005 5.18595652,6.01561139 4.96173913,8.55392822 L22.0473391,8.55392822 C21.8239043,6.01561139 20.0641304,3.84077723 17.5550087,2.69623267 L19.1326696,0.450113861 Z M9.93568696,6.23667822 C9.41345217,6.23667822 8.99029565,5.82178465 8.99029565,5.30982426 C8.99029565,4.79794059 9.41321739,4.38289356 9.93568696,4.38289356 C10.4575304,4.38289356 10.8805304,4.79778713 10.8805304,5.30982426 C10.8806087,5.82170792 10.4575304,6.23667822 9.93568696,6.23667822 Z M17.0734696,6.23667822 C16.5516261,6.23667822 16.1285478,5.82178465 16.1285478,5.30982426 C16.1285478,4.79778713 16.5516261,4.38289356 17.0734696,4.38289356 C17.5958609,4.38289356 18.0187826,4.79794059 18.0187826,5.30982426 C18.0187826,5.82170792 17.5957043,6.23667822 17.0734696,6.23667822 Z" id="Fill-1" sketch:type="MSShapeGroup"></path>
                <path d="M3.86475652,19.1400446 C3.86475652,20.172099 3.0114,21.0087921 1.95871304,21.0087921 C0.906104348,21.0087921 0.0527478261,20.172099 0.0527478261,19.1400446 L0.0527478261,11.5812624 C0.0527478261,10.5492079 0.906104348,9.71251485 1.95871304,9.71251485 C3.0114,9.71251485 3.86475652,10.5492079 3.86475652,11.5812624 L3.86475652,19.1400446" id="Fill-4" sketch:type="MSShapeGroup"></path>
                <path d="M4.96142609,9.77029455 L4.96142609,23.4221881 C4.96142609,24.2329455 5.6318087,24.8903144 6.45894783,24.8903144 L8.23022609,24.8903144 L8.23022609,29.0909678 C8.23022609,30.123099 9.08350435,30.9597153 10.1361913,30.9597153 C11.1888783,30.9597153 12.0422348,30.123099 12.0422348,29.0909678 L12.0422348,24.8903144 L14.9669217,24.8903144 L14.9669217,29.0909678 C14.9669217,30.123099 15.8201217,30.9597153 16.872887,30.9597153 C17.9256522,30.9597153 18.7788522,30.123099 18.7788522,29.0909678 L18.7788522,24.8903144 L20.5501304,24.8903144 C21.3772696,24.8903144 22.0478087,24.2333292 22.0478087,23.4221881 L22.0478087,9.77029455 L4.96142609,9.77029455" id="Fill-5" sketch:type="MSShapeGroup"></path>
                <path d="M23.1444,19.1400446 C23.1444,20.172099 23.9976783,21.0087921 25.0503652,21.0087921 C26.1029739,21.0087921 26.9563304,20.172099 26.9563304,19.1400446 L26.9563304,11.5812624 C26.9563304,10.5492079 26.1029739,9.71251485 25.0503652,9.71251485 C23.9976783,9.71251485 23.1444,10.5492079 23.1444,11.5812624 L23.1444,19.1400446" id="Fill-6" sketch:type="MSShapeGroup"></path>
            </g>
        </g>
    </g>
</svg>