<?xml version="1.0" encoding="UTF-8" standalone="no"?>
<svg width="24px" height="29px" viewBox="0 0 24 29" version="1.1" xmlns="http://www.w3.org/2000/svg" xmlns:xlink="http://www.w3.org/1999/xlink" xmlns:sketch="http://www.bohemiancoding.com/sketch/ns">
    <!-- Generator: Sketch 3.2.2 (9983) - http://www.bohemiancoding.com/sketch -->
    <title>Imported Layers</title>
    <desc>Created with Sketch.</desc>
    <defs></defs>
    <g id="Page-1" stroke="none" stroke-width="1" fill="none" fill-rule="evenodd" sketch:type="MSPage">
        <g id="Apps" sketch:type="MSArtboardGroup" transform="translate(-783.000000, -496.000000)" fill="#FFFFFF">
            <path d="M803.00055,511.380287 C803.04188,515.761355 806.905092,517.219264 806.947893,517.237873 C806.915228,517.340692 806.330615,519.315535 804.912567,521.355408 C803.686729,523.11898 802.414466,524.876091 800.410283,524.912483 C798.44097,524.948203 797.807727,523.762977 795.556243,523.762977 C793.305442,523.762977 792.60188,524.876091 790.737705,524.948203 C788.803158,525.020264 787.33002,523.04113 786.093994,521.28402 C783.568322,517.689777 781.638186,511.127558 784.229871,506.69795 C785.517364,504.498189 787.818213,503.105207 790.315578,503.069487 C792.215254,503.033818 794.008322,504.327497 795.169617,504.327497 C796.330178,504.327497 798.509136,502.771733 800.799797,503.000217 C801.758746,503.039504 804.450528,503.381508 806.179,505.871889 C806.039727,505.956873 802.967149,507.717551 803.00055,511.380287 M799.299455,500.622321 C800.326519,499.398583 801.017792,497.695027 800.829206,496 C799.348768,496.058569 797.558589,496.971061 796.496707,498.194127 C795.545057,499.277207 794.711622,501.010745 794.936497,502.672223 C796.586615,502.797889 798.272339,501.846834 799.299455,500.622321" id="Imported-Layers" sketch:type="MSShapeGroup"></path>
        </g>
    </g>
</svg>