<?xml version="1.0" encoding="UTF-8" standalone="no"?>
<svg width="30px" height="20px" viewBox="0 0 30 20" version="1.1" xmlns="http://www.w3.org/2000/svg" xmlns:xlink="http://www.w3.org/1999/xlink" xmlns:sketch="http://www.bohemiancoding.com/sketch/ns">
    <!-- Generator: Sketch 3.2.2 (9983) - http://www.bohemiancoding.com/sketch -->
    <title>Imported Layers 7</title>
    <desc>Created with Sketch.</desc>
    <defs></defs>
    <g id="Page-1" stroke="none" stroke-width="1" fill="none" fill-rule="evenodd" sketch:type="MSPage">
        <g id="Apps" sketch:type="MSArtboardGroup" transform="translate(-838.000000, -579.000000)" fill="#FFFFFF">
            <g id="Imported-Layers-7" sketch:type="MSLayerGroup" transform="translate(838.000000, 579.000000)">
                <path d="M26.0460674,17.3313333 L4.2947191,17.3313333 C3.50393258,17.3313333 2.35955056,16.8040259 2.35955056,15.8506419 L2.35955056,1.43656375 C2.35955056,0.331333333 3.51202247,0.331333333 3.8905618,0.331333333 L4.2947191,0.333599698 L26.3939326,0.331333333 C27.5191011,0.331333333 27.6404494,1.10416362 27.6404494,1.43656375 L27.6404494,15.8506419 C27.6404494,16.5785226 27.0438202,17.3313333 26.0460674,17.3313333 L26.0460674,17.3313333 Z M4.04494382,15.3947249 C4.12380536,15.4219213 4.21383613,15.4426963 4.29574382,15.4426963 L26.0449438,15.4426963 L26.0449438,2.22223677 L4.04494382,2.22110359 L4.04494382,15.3947249 L4.04494382,15.3947249 Z" id="Fill-1" sketch:type="MSShapeGroup"></path>
                <path d="M28.2552809,19.9993333 L2.15359551,19.9993333 C1.09483146,19.9993333 0,19.9993333 0,19.6187174 L0,18.3463537 C0,17.9993333 0.815730337,17.9993333 1.60449438,17.9993333 L2.15359551,17.9996 L28.7194382,17.9993333 C29.0696629,17.9993333 30,17.9993333 30,18.3463537 L30,19.6187174 C30,19.9993333 28.821573,19.9993333 28.2552809,19.9993333 L28.2552809,19.9993333 Z" id="Fill-3" sketch:type="MSShapeGroup"></path>
            </g>
        </g>
    </g>
</svg>